<!--?xml version="1.0" encoding="utf-8"?-->
<!-- Generator: Adobe Illustrator 18.1.1, SVG Export Plug-In . SVG Version: 6.00 Build 0)  -->

<svg version="1.1" id="_x32_" xmlns="http://www.w3.org/2000/svg" xmlns:xlink="http://www.w3.org/1999/xlink" x="0px" y="0px" viewBox="-300 -300 1100 1100" style="width: 256px; height: 256px; opacity: 1;" xml:space="preserve">
<style type="text/css">
	.st0{fill:#4B4B4B;}
</style>
<g>
	<path class="st0" d="M443.982,0.101c0.068,0,0.146,0,0.214-0.012l0.976-0.045L443.982,0.101z" style="fill: #e6e6e6;"></path>
	<path class="st0" d="M493.044,18.968C480.896,6.786,464.419-0.012,447.326,0c-1.122,0-2.165,0.045-3.13,0.09l-163.38,8.311
		c-15.995,0.819-31.114,7.55-42.431,18.855L18.957,246.696c-12.608,12.552-18.968,29.22-18.945,45.707
		c-0.023,16.489,6.337,33.122,18.91,45.707l0.035,0.012l154.932,154.956c12.596,12.552,29.22,18.933,45.708,18.923
		c16.489,0.01,33.111-6.349,45.696-18.923l219.452-219.462c11.328-11.306,18.036-26.438,18.855-42.433l8.299-163.222
		c0.045-1.132,0.09-2.221,0.09-3.286C512,47.569,505.214,31.103,493.044,18.968z M69.195,284.069l63.339-63.35l13.213,13.202
		l-63.374,63.34L69.195,284.069z M95.161,310.036l63.352-63.34l18.742,18.732l-63.362,63.362L95.161,310.036z M126.68,341.576
		l63.362-63.362l13.179,13.179l-63.35,63.374L126.68,341.576z M167.238,382.113l-10.42-10.421l63.339-63.35l10.421,10.42
		L167.238,382.113z M181.383,396.268l63.372-63.34l18.732,18.744l-63.35,63.339L181.383,396.268z M226.114,440.988l-13.202-13.202
		l63.351-63.351l13.19,13.19L226.114,440.988z M410.008,164.928c-17.374,17.385-45.538,17.385-62.924,0
		c-17.375-17.374-17.375-45.55,0-62.924c17.386-17.397,45.55-17.397,62.924,0C427.394,119.378,427.394,147.553,410.008,164.928z" style="fill: #e6e6e6;"></path>
</g>
</svg>
