<!--?xml version="1.0" encoding="utf-8"?-->
<!-- Generator: Adobe Illustrator 18.1.1, SVG Export Plug-In . SVG Version: 6.00 Build 0)  -->

<svg version="1.1" id="_x32_" xmlns="http://www.w3.org/2000/svg" xmlns:xlink="http://www.w3.org/1999/xlink" x="0px" y="0px" viewBox="-200 -200 900 900" style="width: 256px; height: 256px; opacity: 1;" xml:space="preserve">
<style type="text/css">
	.st0{fill:#4B4B4B;}
</style>
<g>
	<path class="st0" d="M461.799,406.542c-25.504-25.503-76.25-71.988-81.554-102.804c-1.485-8.64-5.592-7.444-14.887-10.636
		c-4.494-1.542-26.607-14.145-37.855-21.646c-28.025-18.725-82.642-67.582-110.687-120.228l-65.59,65.596
		c52.646,28.049,101.498,82.652,120.222,110.682c7.517,11.243,20.114,33.371,21.657,37.855c3.191,9.305,1.992,13.392,10.626,14.888
		c30.821,5.303,77.296,56.06,102.799,81.563c25.513,25.493,65.894,53.127,105.214,49.936
		C514.936,472.427,487.302,432.045,461.799,406.542z" style="fill: #e6e6e6;"></path>
	<path class="st0" d="M298.707,85.315c13.123-3.587,8.345-10.742-16.72-40.574c-25.06-29.842-75.473-47.699-71.602-38.192
		c13.128,32.224-6.253,78.044-28.936,90.993c-27.07,15.466-46.474-0.202-49.329-3.057c-2.85-2.854-56.161-56.165-56.161-56.165
		c-3.345-11.668-4.425-23.498,0.95-33.169c5.371-9.661-27.933-4.291-36.524,4.3c0,0-18.682-9.237-32.648-1.716
		C0.225,21.687,9.453,40.382,9.453,40.382C0.862,48.974-4.509,82.268,5.157,76.907c9.666-5.381,21.483-4.301,33.174-0.945
		c0,0,53.311,53.301,56.161,56.156c2.849,2.854,18.518,22.254,3.047,49.338c-12.949,22.669-58.764,42.06-90.998,28.927
		c-9.502-3.867,8.359,46.543,38.197,71.612c29.833,25.06,36.987,29.833,40.574,16.71c13.123-65.643,58.479-106.218,58.479-106.218
		l48.698-48.702C192.49,143.785,233.063,98.448,298.707,85.315z" style="fill: #e6e6e6;"></path>
</g>
</svg>
